<!--?xml version="1.0" standalone="no"?-->
              <svg id="sw-js-blob-svg" viewBox="0 0 100 100" xmlns="http://www.w3.org/2000/svg" version="1.1">
                    <defs> 
                        <linearGradient id="sw-gradient" x1="0" x2="1" y1="1" y2="0">
                            <stop id="stop1" stop-color="rgba(91.897, 86.226, 83.543, 1)" offset="0%"></stop>
                            <stop id="stop2" stop-color="rgba(214.843, 207.52, 195.433, 1)" offset="100%"></stop>
                        </linearGradient>
                    </defs>
                <path fill="url(#sw-gradient)" d="M19.7,-28.9C26,-26.6,32,-22,35.5,-15.8C39.1,-9.5,40.3,-1.8,37.7,4.3C35.1,10.4,28.6,14.8,23.1,18.6C17.6,22.4,13,25.7,7.7,28.2C2.3,30.8,-3.9,32.6,-9.3,31.3C-14.8,29.9,-19.4,25.4,-24.9,20.7C-30.3,16,-36.5,11,-37.9,5.1C-39.3,-0.9,-35.9,-7.9,-33,-15.5C-30.2,-23.1,-27.8,-31.3,-22.4,-34C-17,-36.7,-8.5,-33.8,-0.9,-32.4C6.7,-31,13.4,-31.2,19.7,-28.9Z" width="100%" height="100%" transform="translate(50 50)" stroke-width="0" style="transition: all 0.3s ease 0s;" stroke="url(#sw-gradient)"></path>
              </svg>